<svg xmlns="http://www.w3.org/2000/svg" xmlns:xlink="http://www.w3.org/1999/xlink" xml:space="preserve" version="1.1" style="shape-rendering:geometricPrecision;text-rendering:geometricPrecision;image-rendering:optimizeQuality;" viewBox="0 0 105833.32 132291.65000000002" x="0px" y="0px" fill-rule="evenodd" clip-rule="evenodd"><defs><style type="text/css">
   
    .fil0 {fill:black;fill-rule:nonzero}
   
  </style></defs><g><path class="fil0" d="M57027.95 22496.66c5644.34,0 10219.81,-4575.47 10219.81,-10219.81 0,-5644.34 -4575.47,-10219.81 -10219.81,-10219.81 -5644.33,0 -10219.8,4575.47 -10219.8,10219.81 0,5633.68 4588.66,10219.81 10219.8,10219.81zm10387.87 32004.56c1118.5,-1912.43 1435.16,-3983.65 2677.73,-5856.43 188.22,-284.31 621.05,2.23 432.84,286.53 -1193.55,1798.89 -1520.47,3823.51 -2580.59,5692.96 -249.97,440.77 -287.43,325.9 225.81,445.56 504.87,117.69 977.37,262.85 1438.85,508.17 473.45,251.66 325.8,267 360.3,-339.03 192.45,-3379.53 2472.49,-6034.46 2935.26,-9398.4 45.42,-338.11 559.55,-269.07 514.12,69.09 -476.01,3460.16 -2877.92,6255.93 -2940.77,9683.03 -11.13,607.72 -58.74,489 305.3,911.23 1015.97,1178.39 1196.46,2884.65 178.38,4164.74 -563.68,708.68 -637.97,332.54 209.63,796.55 2474.04,1354.37 1823.82,4528.78 -1250.15,5480.23 -603.72,186.85 -1311.35,305.74 -2127.33,332.82 -556.02,132.31 -952.35,383.65 -1230.98,670.21 -323.22,332.42 -600.82,929.87 -632.04,1398.95 0,342.13 -520.21,342.13 -520.21,0 0,-601.72 373.6,-1342.3 780.39,-1760.67 347.95,-357.87 516.16,-297.56 -68.35,-327.39 -464.13,-23.69 -1254.57,-33.12 -1649.21,183.93 -288.68,158.77 -441.24,402.49 -518.97,588.69 -130.95,315.4 -610.54,116.28 -479.57,-199.13 64.7,-155 166.23,-338.18 322.53,-509.58 335.25,-367.62 513.76,-224.07 -183.6,-337.72 -978.51,-159.51 -1947.8,-371.78 -2976.01,-614.35 -665.56,-155.02 -429.86,-1167.03 235.73,-1011.99 2285.27,539.12 4411.2,936.66 6774.54,886.16 766.51,-16.38 1415.04,-118.58 1952.42,-282.12 2778.19,-845.52 2587.43,-3339.33 253.1,-3902.53 -954.3,-230.25 -1517.74,68.4 -2466.22,68.4 -2047.78,0 -4873.45,-526.14 -7123.8,-1068.21 -2135.37,-514.37 -4560.92,-73.53 -3523.74,2898.3 344.39,986.81 2398.24,3719.59 3693.4,4070.39 289.11,78.3 572.34,82.79 832.53,73.69 396.58,-12.43 597.59,362.47 513.07,667.84 -134.33,485.3 -604.23,114.11 223.46,730.71 5161.37,3844.85 10135.49,6999.13 16771.78,7781.28 1239.04,146.03 2431.77,133.67 3629.07,-322.96 638.86,-243.24 1008.68,728.13 369.83,971.35 -372.16,141.93 -316.03,77.54 52.95,288.52 1596.05,912.68 3179.1,2264.08 4383.56,3587.86 459.18,504.56 -308.96,1203.59 -768.13,699.03 -801.47,-880.87 -3138.4,-2990.65 -4825.7,-3791.22 -954.82,-453.02 -1903.52,-279.32 -2953.51,-403.2 -6930.68,-817.85 -11964.83,-4030.64 -17338.54,-8041.12 -678.62,-506.45 -1352.93,-1022.21 -2009.52,-1581.02 -1370.7,-1166.57 -2976.14,-2734.77 -3553.72,-4389.77 -452.66,-1297.03 -301.45,-2818.94 614.53,-3807.63 879.89,-949.78 1158.6,-309.25 -186.87,-1269.52 -2222.61,-1586.3 -3318.47,-4017.76 -1979.5,-6594.44 342.32,-658.8 369.96,-385.17 -222.75,-896.24 -1046.43,-902.27 -1632.75,-1932.6 -1632.75,-3356.53 0,-2961.33 1930.68,-5678.72 4985.42,-5598.76 2883.69,75.46 4299.36,1410.45 6799.57,2174.24 736.55,224.99 662.67,84.14 73.91,-281.22 -228.24,-141.63 -528.2,-307.16 -886.61,-492.95 -1176.09,-609.69 -2917.78,-1298.68 -4876.56,-2065.2 -4198,-1642.82 -8297.31,-3518.76 -12442.08,-5284.71 -4572.51,-1948.21 -2884.56,-9448.14 3479.34,-7282.61 3837.44,1305.77 7443.5,3136.72 11406.57,4360.49 2951.15,911.31 5310.09,1779.16 7444.05,2708.61 1120.69,488.12 2179.98,993.88 3231.21,1532.46 679.22,348.01 971.04,658.38 364.49,-121.21 -716.13,-920.41 -1375.06,-1767.32 -2090.85,-2875.97 -1685.39,-2610.45 -2751.23,-6520.21 -1242.78,-9452.65 1465.04,-2681.68 3412.81,-1944.75 4656.81,117.83 1424,2361.08 1941.85,3587.39 3805.64,5660.51 1649.93,1835.26 2980.49,3750.44 4577.73,5581.75 1578.69,1810.06 3471.05,3364.3 4947.47,5197.15 763.92,948.35 1513.59,2087.27 2235.64,3595.56 1388.34,2900.13 2141.23,5561.88 3262.1,8108.19 927.26,2106.55 2200.64,4212.47 3730.58,5975.21 1346.86,1551.87 3078.44,3215.4 4756.57,4378.68 560.62,387.11 -28.69,1240.58 -589.3,853.49 -1737.9,-1204.72 -3358.02,-2794 -4788.12,-4355.56 -869.89,-949.78 -675.31,-1007.84 -558.65,161.89 66.83,678.94 -965.48,780.54 -1032.3,101.61 -64.09,-642.62 -205,-1279.47 -402.18,-1929.77 -517.32,-1706.21 -1340.51,-3040.67 -2031.22,-4657.42 -1138.68,-2665.35 -2067.63,-5652.03 -3282.24,-8189.25 -680.85,-1422.24 -1388.37,-2496.95 -2109.65,-3392.35 -1459.95,-1812.42 -3351.81,-3367.75 -4919.02,-5164.65 -1594.6,-1828.31 -2923.12,-3738.1 -4569.61,-5569.54 -2003.62,-2228.62 -2289.12,-3503.02 -3798.8,-5751.75 -831.89,-1239.14 -1963.61,-2200.34 -2968.88,-246.08 -1327.23,2580.18 -277.11,6137.7 1194.02,8416.29 680.48,1053.99 1331.02,1890.08 2038,2798.74 1540.81,1980.34 2398.95,2979.56 3254.69,5354.13 569.98,1581.55 1167.39,3190.53 2181.94,4548.69 408.96,547.98 -424.23,1169.78 -833.17,621.82 -179.52,-240.31 -347.12,-488.45 -504.21,-741.71 -491.08,-791.8 -110.12,-162.33 -705.2,-146.05 -323.04,8.84 -656.68,-277.23 -526.5,-677.67 81.45,-247.96 139.28,-533.64 137.5,-847.31 -3.55,-622.97 -283.59,-1197.53 -494.44,-1770.87 -507.62,-1380.28 -2125.64,-5010.54 -4214.56,-4016.21 -336.43,211.81 -816.49,3.32 -910.98,-283.05 -215.91,-654.43 652.76,-553.87 -426.4,-1045.67 -588.45,-268.17 -1176.86,-551.23 -1789.88,-818.24 -2098.79,-914.13 -4422.74,-1768.88 -7334.31,-2667.96 -3974.85,-1227.42 -7588.01,-3059.59 -11435.03,-4368.62 -5105.02,-1737.17 -6096.12,3913.89 -2739.64,5343.97 1753.82,747.23 3497.49,1526.04 5248.62,2281.31 802.03,345.9 491.42,300.96 453.72,-321.14 -13.15,-216.81 10.1,-427.67 59.36,-616.58 85.54,-330.1 587.47,-200.05 501.93,130.07 -77.39,296.79 -68.75,664.71 100.23,987.85 276.55,528.91 913.35,690.07 1437.09,912.21 1252.38,531.18 2494.5,1049.73 3592.89,1492.97 703.56,283.92 572.83,365.55 538.51,-160.26 -13.07,-199.98 5.06,-394.25 34.92,-567.03 57.46,-336.79 569.55,-249.43 512.09,87.38 -39,225.68 -54.19,492.55 22.68,731.78 180.81,562.67 943.5,718.2 1457.25,923.22 1347.7,537.84 2532.5,1036.21 3428.43,1500.66 415.52,215.4 774.29,430.08 1066.5,645.63 537.93,396.78 501.95,352.63 708.51,-47.84 63.64,-123.38 116.93,-262.31 177.11,-410.13 256.61,-633.49 1219.82,-243.33 963.22,390.17 -339.6,834.07 -1097.63,1883.89 -1291.83,2635.48 -123.8,526.05 -952.61,341.57 -1042.42,48.58 -138.49,-451.82 -151.72,-453.45 -544.65,-573.48 -2329.92,-711.77 -3922.8,-2061.5 -6523.2,-2129.54 -2467.12,-64.59 -3920.59,2192.55 -3920.59,4562.39 0,1634.53 1020.25,2472.47 2271.92,3316.14 806.86,543.83 2158.85,1081.07 3113.08,1267.9 1292.57,253.09 2196.19,-63.8 2730.85,-653.64 573.37,-632.54 725.95,-1563.85 571.78,-2383.23 -194.91,-1035.85 -885.98,-2023.52 -2058.59,-2441.63 -376.62,-134.28 -1330.29,-617.73 -1652.49,-857.13 -547.97,-406.28 69.78,-1239.46 617.75,-833.17 195.12,144.96 574.21,333.95 902.54,492.24 476.85,229.88 380.12,225.56 358.84,-157.22 -4.9,-91.58 -9.6,-179.37 -9.6,-230.56 0,-684.3 1040.45,-684.3 1040.45,0 0,241.16 27.8,475.5 27.8,714.45 0,264.39 87.22,387.25 258.92,516.72 881.45,664.7 1346.86,1608.08 1534.5,2605.28 216.16,1148.83 -25.01,2388.04 -823.77,3269.24 -99.83,110.12 -207.58,213.81 -323.25,310.14 -265.95,221.49 -329.57,157.25 39.79,321 327.4,145.16 688.11,272.16 1069.47,385.32 311.55,92.44 291.99,132.64 223.54,-203.6 -34.57,-169.87 -85.1,-349.42 -151.11,-433.32 -210.9,-268.31 197.57,-589.36 408.46,-321.08 153.59,195.2 247.04,571.61 292.35,890.27 48.16,338.8 -35.34,268.42 320.62,348.17 871,195.19 1751.94,339.02 2630.26,496.78 472.16,84.81 375.43,135.78 626.86,-294.09zm-45324.09 -29065.79c-1775.7,-1775.7 921.59,-4472.99 2697.29,-2697.29l1403.94 1403.94c407.83,407.83 277.31,374.89 702.72,-50.52l4765.47 -4765.48c1775.6,-1775.69 4473,921.5 2697.29,2697.3l-7330.14 7330.16c-642.36,642.36 -438.56,579.92 -1113.61,-95.14l-3822.96 -3822.97zm735.63 -735.62l3271.52 3271.53c514.71,514.71 348.16,492.2 875.27,-34.93l6648.66 -6648.66c807.1,-807.1 -418.99,-2033.13 -1226.03,-1226.04l-5394.95 5394.95c-598.17,598.17 -405.45,560.1 -1024.29,-58.74l-1924.15 -1924.15c-807.08,-807.08 -2033.11,418.96 -1226.03,1226.04zm44580.13 38044.46c185.55,-285.65 620.4,-3.16 434.86,282.46 -285.72,438.75 -320.72,1327.22 136.63,1685.28 268.3,209.55 -50.73,618.01 -319.03,408.45 -674.93,-528.42 -686.48,-1709.74 -252.46,-2376.19zm195.65 -5837.37c331.45,82.87 205.44,586.82 -126,503.96 -1772.44,-448.17 -2433.9,761.96 -1948.44,2363.23 98.89,326.13 -396.95,476.46 -495.83,150.38 -604.37,-1993.45 401.35,-3565.98 2570.27,-3017.57zm-8656.1 -8939.77c308.71,145.66 87.25,615.09 -221.49,469.41 -1651.41,-785.8 -2535.84,272.02 -2372.3,1937.45 33.41,339.46 -482.73,390.27 -516.15,50.81 -203.49,-2072.61 1090.05,-3418.84 3109.94,-2457.67zm30234.14 20333.44c92.2,-328.75 592.09,-188.57 499.88,140.21 -325.98,1163.97 -996.66,2212.34 -1911.44,3001.6 -257.62,222.91 -596.98,-169.28 -339.36,-392.2 840.69,-725.34 1451.32,-1679.91 1750.92,-2749.61zm1759.11 -46.74c92.21,-328.75 592.1,-188.56 499.89,140.21 -528.98,1888.75 -1615.39,3587.04 -3099.78,4867.75 -257.62,222.91 -596.99,-169.28 -339.37,-392.2 1410.3,-1216.78 2436.69,-2821.29 2939.26,-4615.76zm-35855.91 -15057.27c-1026.89,2076.9 -43.55,3932.48 1706.52,5181.53 900.58,642.74 2094.92,1160.1 3388.58,1563.59 2499.77,779.69 5370.45,1134.28 7209.27,1147 1351.34,0 2264.45,-441.33 2761.46,-1066.22 856.68,-1077.14 511.64,-2300.06 -381.75,-3095.9 -1694.65,-1509.6 -6349.65,-1078.17 -8980.59,-2761.14 -424.93,-271.81 -548.15,-85.57 -1077.73,-77.53 -1143.66,17.36 -2610.93,-460.39 -3751.45,-1033.23 -616.41,-309.59 -553.28,-507.27 -874.31,141.9zm9329.74 -4719.85c26.71,-340.78 544.91,-300.19 518.19,40.64 -101.03,1233.72 -427.87,2144.7 -1079.06,3195.54 -178.85,289.64 -619.82,17.37 -440.96,-272.29 606.87,-979.35 907.7,-1814.27 1001.83,-2963.89zm14495.34 14265.99c258.94,221.55 -78.35,615.79 -337.31,394.22 -3709.08,-3169.39 -5136.38,-8322.16 -4044.99,-13020.73 76.16,-332.76 582.17,-216.97 506,115.83 -1047.9,4511.36 313.15,9465.99 3876.3,12510.68zm-50684.37 -48755.12c-5644.34,0 -10219.81,4575.47 -10219.81,10219.8 0,5640.95 4578.38,10219.81 10219.81,10219.81 5644.33,0 10219.8,-4575.47 10219.8,-10219.81 0,-5644.33 -4575.47,-10219.8 -10219.8,-10219.8zm0 -1040.45c3356.86,0 6510.4,1482.68 8654.58,4056.62 2816.68,-1579.12 5825.97,-2827.37 8933.98,-3703.71 -30.41,-336.99 -45.95,-678.27 -45.95,-1023.19 0,-6218.76 5041.5,-11260.25 11260.25,-11260.25 6218.76,0 11260.25,5041.49 11260.25,11260.25 0,6218.76 -5041.49,11260.25 -11260.25,11260.25 -5425.59,0 -10086.37,-3876.41 -11071.52,-9197.56 -2941.6,840.14 -5769.57,2013.77 -8443.03,3500.82 1243.86,1811.05 1971.94,4004 1971.94,6367.02 0,6218.76 -5041.5,11260.26 -11260.25,11260.26 -2363.64,0 -4557.12,-728.42 -6368.42,-1972.88 -1483.52,2668.89 -2660.58,5507.96 -3499.42,8443.98 5321.15,985.18 9197.54,5645.93 9197.54,11071.52 0,5425.38 -3876.12,10086.03 -9197.02,11071.41 420.1,1471.07 919.22,2901.94 1492.27,4287.63 590.23,1427.21 1261.19,2814.45 2007.23,4156.04 1811.21,-1244.18 4004.44,-1972.46 6367.82,-1972.46 6218.75,0 11260.25,5041.49 11260.25,11260.25 0,2363.02 -728.05,4555.97 -1971.93,6367 2663.86,1481.71 5481.1,2652.28 8411.45,3491.81 910.61,-5404.08 5609.93,-9375.72 11103.09,-9375.72 6218.76,0 11260.25,5041.49 11260.25,11260.25 0,6218.76 -5041.49,11260.25 -11260.25,11260.25 -6218.75,0 -11260.25,-5041.49 -11260.25,-11260.25 0,-282.64 10.52,-562.81 31.02,-840.21 -3102.67,-876.12 -6106.89,-2122.91 -8919.04,-3699.5 -2144.77,2573.98 -5297.11,4056.62 -8654.59,4056.62 -6218.76,0 -11260.26,-5041.5 -11260.26,-11260.25 0,-3357.2 1483.02,-6511.09 4057.4,-8655.25 -792.79,-1413.78 -1505.34,-2880.66 -2131.33,-4394.36 -611.33,-1478.25 -1137.85,-2993.25 -1573.7,-4538.92 -336.82,30.38 -677.93,45.9 -1022.66,45.9 -6218.74,0 -11260.25,-5041.48 -11260.25,-11260.24 0,-6218.76 5041.5,-11260.25 11260.25,-11260.25 344.91,0 686.19,15.54 1023.19,45.95 877.91,-3114.25 2122.23,-6110.96 3705.06,-8932.87 -2574.76,-2144.69 -4057.96,-5297.69 -4057.96,-8655.71 0,-6218.75 5041.5,-11260.25 11260.26,-11260.25zm0 58646.19c-5644.34,0 -10219.81,4575.47 -10219.81,10219.81 0,5644.33 4575.47,10219.8 10219.81,10219.8 5644.33,0 10219.8,-4575.47 10219.8,-10219.8 0,-5644.34 -4575.47,-10219.81 -10219.8,-10219.81zm28802.86 11743.34c-5645.45,0 -10219.8,4703.02 -10219.8,10219.81 0,5644.34 4575.47,10219.81 10219.8,10219.81 5644.34,0 10219.81,-4575.47 10219.81,-10219.81 0,-5644.34 -4575.47,-10219.81 -10219.81,-10219.81zm-40733.41 -40546.21c-5644.33,0 -10219.8,4575.47 -10219.8,10219.81 0,5644.34 4575.48,10219.8 10219.8,10219.8 5644.33,0 10219.81,-4575.47 10219.81,-10219.8 0,-5644.34 -4575.47,-10219.81 -10219.81,-10219.81z"/></g><text x="0" y="105848.32" fill="#000000" font-size="5px" font-weight="bold" font-family="'Helvetica Neue', Helvetica, Arial-Unicode, Arial, Sans-serif">Created by Oleksandr Panasovskyi</text><text x="0" y="105853.32" fill="#000000" font-size="5px" font-weight="bold" font-family="'Helvetica Neue', Helvetica, Arial-Unicode, Arial, Sans-serif">from the Noun Project</text></svg>