<svg xmlns="http://www.w3.org/2000/svg" xmlns:xlink="http://www.w3.org/1999/xlink" version="1.1" x="0px" y="0px" viewBox="0 0 33 41.25" enable-background="new 0 0 33 33" xml:space="preserve"><path d="M8.641,20.811C4.51,20.498,0.646,24.727,0.5,24.895l1.223,1.217c0.029-0.029,4.035-4.295,7.41-3.336  c0.014,0.004,0.025,0.008,0.037,0.01c-0.049-0.172-0.098-0.336-0.145-0.496C8.877,21.797,8.736,21.314,8.641,20.811z"/><path d="M24.359,12.171c3.287,0.266,6.057-2.15,7.012-3.105c0.205-0.205,1.105-1.068,1.129-1.102l-1.209-1.206  c-0.029,0.036-4.053,4.34-7.383,3.458c-0.012-0.003-0.023-0.006-0.031-0.009c0.041,0.169,0.088,0.333,0.131,0.494  C24.143,11.188,24.275,11.674,24.359,12.171z"/><path d="M12.482,13.034c-3.445,3.449-3.674,5.685-3.201,7.731c0.131,0.553,0.305,1.094,0.49,1.645  c0.061,0.18,0.125,0.365,0.182,0.551C9.959,22.977,9.965,22.986,9.965,23c1.205,3.742-3.35,7.938-3.387,7.971l1.428,1.428  c0.033-0.027,0.992-1.014,1.207-1.225c0.99-0.99,3.463-3.887,2.949-7.537c-0.059-0.398-0.141-0.801-0.271-1.215  c-0.066-0.207-0.137-0.414-0.201-0.609c-0.053-0.154-0.1-0.301-0.148-0.445c-0.693-2.123-0.904-3.59,2.391-6.886  c3.293-3.295,4.762-3.078,6.885-2.389c-0.045-0.14-0.096-0.287-0.143-0.436c-0.064-0.199-0.137-0.404-0.201-0.611  c-0.133-0.408-0.211-0.807-0.26-1.212C18.166,9.36,15.928,9.59,12.482,13.034z"/><path d="M20.885,9.426c0.037,0.399,0.107,0.8,0.23,1.204c0.063,0.207,0.127,0.41,0.189,0.607c0.047,0.151,0.094,0.298,0.137,0.437  c0.648,2.117,0.832,3.579-2.539,6.947c-3.367,3.367-4.451,2.971-6.625,2.631c0.043,0.146,0.514,1.43,0.574,2.221  c2.059,0.205,3.953,0.088,7.473-3.434c3.518-3.518,3.799-5.758,3.369-7.795c-0.115-0.554-0.285-1.099-0.457-1.645  c-0.055-0.18-0.111-0.364-0.172-0.552c-0.002-0.009-0.004-0.021-0.01-0.034c-1.211-4.288,3.285-7.851,3.467-8.029l-1.383-1.383  C24.959,0.757,20.438,4.879,20.885,9.426z"/><path d="M18.482,17.111c0.27,0.268,0.32,0.652,0.113,0.859l-0.492,0.49c-0.207,0.207-0.59,0.158-0.859-0.109l-2.695-2.695  c-0.268-0.271-0.318-0.652-0.109-0.86l0.49-0.491c0.207-0.203,0.592-0.157,0.857,0.112L18.482,17.111z"/><path d="M20.031,14.644c0.176,0.178,0.172,0.462-0.004,0.636l-0.414,0.416c-0.176,0.177-0.459,0.179-0.637,0.001l-1.77-1.771  c-0.176-0.178-0.178-0.463-0.002-0.637l0.416-0.418c0.176-0.176,0.461-0.177,0.637-0.001L20.031,14.644z"/><path d="M14.777,19.898c0.174,0.176,0.459,0.174,0.637-0.002l0.416-0.416c0.174-0.178,0.176-0.459,0-0.635l-1.771-1.772  c-0.178-0.178-0.461-0.178-0.639-0.002l-0.416,0.417c-0.176,0.176-0.176,0.461,0,0.637L14.777,19.898z"/><path d="M29.643,6.119c0.266,0.265,0.316,0.65,0.113,0.856L29.26,7.467c-0.205,0.206-0.592,0.157-0.859-0.111l-2.693-2.693  c-0.268-0.268-0.316-0.652-0.111-0.858l0.492-0.491c0.207-0.209,0.59-0.157,0.857,0.108L29.643,6.119z"/><path d="M25.934,8.904c0.176,0.172,0.461,0.172,0.637-0.001l0.416-0.417c0.176-0.178,0.176-0.463,0.002-0.636l-1.773-1.772  C25.039,5.9,24.756,5.9,24.58,6.076l-0.418,0.419c-0.176,0.174-0.174,0.461,0,0.636L25.934,8.904z"/><path d="M6.168,29.428c0.268,0.266,0.652,0.316,0.857,0.109l0.492-0.49c0.207-0.209,0.156-0.592-0.109-0.859l-2.695-2.693  c-0.268-0.27-0.652-0.318-0.859-0.113l-0.492,0.494c-0.205,0.205-0.156,0.588,0.109,0.855L6.168,29.428z"/><path d="M8.955,25.719c0.174,0.176,0.174,0.465-0.004,0.637l-0.414,0.418c-0.178,0.174-0.463,0.174-0.635,0.002l-1.773-1.773  c-0.178-0.178-0.178-0.463-0.002-0.639l0.418-0.416c0.174-0.176,0.461-0.176,0.637,0.002L8.955,25.719z"/><text x="0" y="48" fill="#000000" font-size="5px" font-weight="bold" font-family="'Helvetica Neue', Helvetica, Arial-Unicode, Arial, Sans-serif">Created by Minh Do</text><text x="0" y="53" fill="#000000" font-size="5px" font-weight="bold" font-family="'Helvetica Neue', Helvetica, Arial-Unicode, Arial, Sans-serif">from the Noun Project</text></svg>