<svg width="40" height="62" viewBox="0 0 40 62" xmlns="http://www.w3.org/2000/svg"><g fill="#000" fill-rule="evenodd"><path d="M39.09 61.88c.344.102.525-.073.59-.332C37.888 35.09 14.909 32.448.06 20.665c-.441 2.937 1.667 5.879 2.07 8.975 10.506 6.03 23.852 12.223 31.933 21.604 2.113 2.453 4.55 5.407 4.73 9.639.002.545.006.858.296.997z"></path><path d="M18.046 40.497c-3.985 2.142-7.666 4.594-11.93 6.451.975 2.707 3.132 4.207 4.562 6.45 4.573-2.734 9.221-5.393 13.684-8.242-1.797-1.869-4.401-2.911-6.316-4.659zM21.555 0c6.087 4.95 16.479 9.498 16.491 19.711.008 7.012-6.247 10.877-10.877 14.694 1.345 1.612 3.451 2.447 4.561 4.3 9.32-6.338 9.49-31.997.351-38.705H21.555z"></path><path d="M28.294 14.747v-1.92h4.318v3.936c-.827.575-1.558.967-2.193 1.175-.635.208-1.389.312-2.26.312-1.074 0-1.948-.187-2.625-.56-.676-.374-1.2-.931-1.572-1.67-.372-.739-.558-1.588-.558-2.545 0-1.008.203-1.885.61-2.63a3.988 3.988 0 0 1 1.789-1.698c.612-.298 1.437-.447 2.473-.447 1 0 1.747.092 2.242.277.496.184.907.471 1.234.86.327.388.573.88.737 1.477l-2.695.491a1.49 1.49 0 0 0-.565-.8c-.264-.184-.603-.277-1.014-.277-.613 0-1.101.217-1.465.652-.364.435-.546 1.122-.546 2.063 0 1 .184 1.714.552 2.142.368.429.88.643 1.539.643.312 0 .61-.046.894-.139.284-.092.609-.25.975-.472v-.87h-1.87zm-13.623-5.89h4.645c1.011 0 1.769.246 2.273.738.504.49.755 1.19.755 2.098 0 .932-.274 1.66-.823 2.186-.55.525-1.387.787-2.514.787h-1.53v3.427h-2.805V8.857zm2.807 3.938h.684c.54 0 .917-.096 1.135-.287a.932.932 0 0 0 .327-.734c0-.29-.095-.536-.284-.737-.189-.202-.545-.303-1.067-.303h-.795v2.06zm7.68 6.772h5.23c.872 0 1.541.22 2.008.661.466.441.7.987.7 1.638 0 .546-.167 1.014-.5 1.405-.222.26-.547.466-.974.617.65.16 1.127.434 1.434.822.306.389.46.877.46 1.465 0 .479-.11.91-.328 1.292a2.432 2.432 0 0 1-.894.907c-.234.138-.588.24-1.06.302-.63.084-1.047.126-1.253.126h-4.823v-9.235zm2.818 3.622h1.216c.435 0 .739-.077.91-.23.17-.153.255-.375.255-.664 0-.27-.085-.48-.256-.63-.17-.152-.467-.227-.89-.227h-1.235v1.751zm0 3.629h1.425c.481 0 .82-.087 1.018-.262.197-.174.296-.408.296-.702a.82.82 0 0 0-.293-.658c-.195-.166-.537-.25-1.027-.25h-1.419v1.872zm-13.28-7.251h2.794v3.49l2.927-3.49h3.716l-3.3 3.486 3.448 5.749H20.84l-1.906-3.798-1.444 1.545v2.253h-2.794v-9.235z"></path></g></svg>
